<mxfile host="app.diagrams.net" modified="2021-06-16T11:03:09.011Z" agent="5.0 (Windows NT 6.3; Win64; x64) AppleWebKit/537.36 (KHTML, like Gecko) Chrome/91.0.4472.102 Safari/537.36" etag="H_D6nKRiuSVAPilnw0JC" version="14.7.8" type="github">
  <diagram id="MdKtoK_RENReXs82-K8u" name="Page-1">
    <mxGraphModel dx="1067" dy="571" grid="1" gridSize="10" guides="1" tooltips="1" connect="1" arrows="1" fold="1" page="1" pageScale="1" pageWidth="1169" pageHeight="827" math="0" shadow="0">
      <root>
        <mxCell id="0" />
        <mxCell id="1" parent="0" />
        <mxCell id="WDur1Cv2T1Mm-qldrju6-5" value="&lt;p style=&quot;margin: 0px ; margin-top: 6px ; text-align: center&quot;&gt;&lt;b&gt;«component»&lt;/b&gt;&lt;/p&gt;&lt;p style=&quot;margin: 0px ; margin-top: 6px ; text-align: center&quot;&gt;&lt;b&gt;Subsistema ETSA&lt;/b&gt;&lt;/p&gt;&lt;hr&gt;&lt;p style=&quot;margin: 0px ; margin-left: 8px&quot;&gt;&lt;br&gt;&lt;/p&gt;" style="align=left;overflow=fill;html=1;dropTarget=0;" parent="1" vertex="1">
          <mxGeometry x="40" y="120" width="240" height="160" as="geometry" />
        </mxCell>
        <mxCell id="WDur1Cv2T1Mm-qldrju6-6" value="" style="shape=component;jettyWidth=8;jettyHeight=4;" parent="WDur1Cv2T1Mm-qldrju6-5" vertex="1">
          <mxGeometry x="1" width="20" height="20" relative="1" as="geometry">
            <mxPoint x="-24" y="4" as="offset" />
          </mxGeometry>
        </mxCell>
        <mxCell id="9fyUYvFx3Kznos_2-3Rt-22" value="&lt;p style=&quot;margin: 0px ; margin-top: 6px ; text-align: center&quot;&gt;&lt;b&gt;«component»&lt;/b&gt;&lt;/p&gt;&lt;p style=&quot;margin: 0px ; margin-top: 6px ; text-align: center&quot;&gt;&lt;b&gt;Base de Datos (MySQL Spatial)&lt;/b&gt;&lt;/p&gt;&lt;hr&gt;&lt;p style=&quot;margin: 0px ; margin-left: 8px&quot;&gt;&lt;br&gt;&lt;/p&gt;" style="align=left;overflow=fill;html=1;dropTarget=0;" parent="1" vertex="1">
          <mxGeometry x="440" y="440" width="240" height="160" as="geometry" />
        </mxCell>
        <mxCell id="9fyUYvFx3Kznos_2-3Rt-23" value="" style="shape=component;jettyWidth=8;jettyHeight=4;" parent="9fyUYvFx3Kznos_2-3Rt-22" vertex="1">
          <mxGeometry x="1" width="20" height="20" relative="1" as="geometry">
            <mxPoint x="-24" y="4" as="offset" />
          </mxGeometry>
        </mxCell>
        <mxCell id="Vn89j9QbeQXNIy0E9jME-1" value="&lt;p style=&quot;margin: 0px ; margin-top: 6px ; text-align: center&quot;&gt;&lt;b&gt;Servidor Geoespacial&lt;/b&gt;&lt;/p&gt;&lt;p style=&quot;margin: 0px ; margin-top: 6px ; text-align: center&quot;&gt;&lt;b&gt;(MapServer)&lt;/b&gt;&lt;/p&gt;&lt;hr&gt;&lt;p style=&quot;margin: 0px ; margin-left: 8px&quot;&gt;&lt;br&gt;&lt;/p&gt;" style="align=left;overflow=fill;html=1;dropTarget=0;" parent="1" vertex="1">
          <mxGeometry x="840" y="120" width="240" height="160" as="geometry" />
        </mxCell>
        <mxCell id="Vn89j9QbeQXNIy0E9jME-2" value="" style="shape=component;jettyWidth=8;jettyHeight=4;" parent="Vn89j9QbeQXNIy0E9jME-1" vertex="1">
          <mxGeometry x="1" width="20" height="20" relative="1" as="geometry">
            <mxPoint x="-24" y="4" as="offset" />
          </mxGeometry>
        </mxCell>
        <mxCell id="AIxXi7Lmv9cS9lSX1KLY-20" value="" style="group" vertex="1" connectable="0" parent="1">
          <mxGeometry x="440" y="120" width="240" height="160" as="geometry" />
        </mxCell>
        <mxCell id="AIxXi7Lmv9cS9lSX1KLY-16" value="&lt;p style=&quot;margin: 0px ; margin-top: 6px ; text-align: center&quot;&gt;&lt;b&gt;«component»&lt;/b&gt;&lt;/p&gt;&lt;p style=&quot;margin: 0px ; margin-top: 6px ; text-align: center&quot;&gt;&lt;b&gt;App (Python)&lt;/b&gt;&lt;/p&gt;&lt;hr&gt;&lt;p style=&quot;margin: 0px ; margin-left: 8px&quot;&gt;&lt;br&gt;&lt;/p&gt;" style="align=left;overflow=fill;html=1;dropTarget=0;" vertex="1" parent="AIxXi7Lmv9cS9lSX1KLY-20">
          <mxGeometry width="240" height="160" as="geometry" />
        </mxCell>
        <mxCell id="AIxXi7Lmv9cS9lSX1KLY-17" value="" style="shape=component;jettyWidth=8;jettyHeight=4;" vertex="1" parent="AIxXi7Lmv9cS9lSX1KLY-16">
          <mxGeometry x="1" width="20" height="20" relative="1" as="geometry">
            <mxPoint x="-24" y="4" as="offset" />
          </mxGeometry>
        </mxCell>
        <mxCell id="AIxXi7Lmv9cS9lSX1KLY-14" value="«component»&lt;br&gt;«library»&lt;br&gt;&lt;b&gt;Visualizador SIG (Leaflet)&lt;/b&gt;" style="html=1;dropTarget=0;" vertex="1" parent="AIxXi7Lmv9cS9lSX1KLY-20">
          <mxGeometry x="30" y="60" width="180" height="90" as="geometry" />
        </mxCell>
        <mxCell id="AIxXi7Lmv9cS9lSX1KLY-15" value="" style="shape=module;jettyWidth=8;jettyHeight=4;" vertex="1" parent="AIxXi7Lmv9cS9lSX1KLY-14">
          <mxGeometry x="1" width="20" height="20" relative="1" as="geometry">
            <mxPoint x="-27" y="7" as="offset" />
          </mxGeometry>
        </mxCell>
        <mxCell id="AIxXi7Lmv9cS9lSX1KLY-21" value="«component»&lt;br&gt;«library»&lt;br&gt;&lt;b&gt;GDAL&lt;/b&gt;" style="html=1;dropTarget=0;" vertex="1" parent="1">
          <mxGeometry x="870" y="180" width="180" height="90" as="geometry" />
        </mxCell>
        <mxCell id="AIxXi7Lmv9cS9lSX1KLY-22" value="" style="shape=module;jettyWidth=8;jettyHeight=4;" vertex="1" parent="AIxXi7Lmv9cS9lSX1KLY-21">
          <mxGeometry x="1" width="20" height="20" relative="1" as="geometry">
            <mxPoint x="-27" y="7" as="offset" />
          </mxGeometry>
        </mxCell>
        <mxCell id="AIxXi7Lmv9cS9lSX1KLY-23" value="&lt;p style=&quot;margin: 0px ; margin-top: 6px ; text-align: center&quot;&gt;&lt;b&gt;«component»&lt;/b&gt;&lt;/p&gt;&lt;p style=&quot;margin: 0px ; margin-top: 6px ; text-align: center&quot;&gt;&lt;b&gt;Terminal de Transmisión de Datos&amp;nbsp;&lt;/b&gt;&lt;/p&gt;&lt;p style=&quot;margin: 0px ; margin-top: 6px ; text-align: center&quot;&gt;&lt;b&gt;(Arduino)&lt;/b&gt;&lt;/p&gt;&lt;hr&gt;&lt;p style=&quot;margin: 0px ; margin-left: 8px&quot;&gt;&lt;br&gt;&lt;/p&gt;" style="align=left;overflow=fill;html=1;dropTarget=0;" vertex="1" parent="1">
          <mxGeometry x="40" y="440" width="240" height="160" as="geometry" />
        </mxCell>
        <mxCell id="AIxXi7Lmv9cS9lSX1KLY-24" value="" style="shape=component;jettyWidth=8;jettyHeight=4;" vertex="1" parent="AIxXi7Lmv9cS9lSX1KLY-23">
          <mxGeometry x="1" width="20" height="20" relative="1" as="geometry">
            <mxPoint x="-24" y="4" as="offset" />
          </mxGeometry>
        </mxCell>
        <mxCell id="AIxXi7Lmv9cS9lSX1KLY-51" value="" style="rounded=0;orthogonalLoop=1;jettySize=auto;html=1;endArrow=none;endFill=0;exitX=0;exitY=0.5;exitDx=0;exitDy=0;" edge="1" target="AIxXi7Lmv9cS9lSX1KLY-53" parent="1" source="Vn89j9QbeQXNIy0E9jME-1">
          <mxGeometry relative="1" as="geometry">
            <mxPoint x="720" y="355" as="sourcePoint" />
          </mxGeometry>
        </mxCell>
        <mxCell id="AIxXi7Lmv9cS9lSX1KLY-52" value="" style="rounded=0;orthogonalLoop=1;jettySize=auto;html=1;endArrow=halfCircle;endFill=0;endSize=6;strokeWidth=1;exitX=1;exitY=0.5;exitDx=0;exitDy=0;" edge="1" parent="1" source="AIxXi7Lmv9cS9lSX1KLY-16">
          <mxGeometry relative="1" as="geometry">
            <mxPoint x="760" y="355" as="sourcePoint" />
            <mxPoint x="720" y="200" as="targetPoint" />
          </mxGeometry>
        </mxCell>
        <mxCell id="AIxXi7Lmv9cS9lSX1KLY-53" value="" style="ellipse;whiteSpace=wrap;html=1;fontFamily=Helvetica;fontSize=12;fontColor=#000000;align=center;points=[];aspect=fixed;resizable=0;fillColor=none;strokeColor=#FFFFFF;" vertex="1" parent="1">
          <mxGeometry x="800" y="195" width="10" height="10" as="geometry" />
        </mxCell>
        <mxCell id="AIxXi7Lmv9cS9lSX1KLY-39" value="" style="rounded=0;orthogonalLoop=1;jettySize=auto;html=1;endArrow=none;endFill=0;exitX=0;exitY=0.5;exitDx=0;exitDy=0;" edge="1" target="AIxXi7Lmv9cS9lSX1KLY-41" parent="1" source="AIxXi7Lmv9cS9lSX1KLY-16">
          <mxGeometry x="310" y="195" as="geometry">
            <mxPoint x="30" y="60" as="sourcePoint" />
          </mxGeometry>
        </mxCell>
        <mxCell id="AIxXi7Lmv9cS9lSX1KLY-40" value="" style="rounded=0;orthogonalLoop=1;jettySize=auto;html=1;endArrow=halfCircle;endFill=0;endSize=6;strokeWidth=1;exitX=1;exitY=0.5;exitDx=0;exitDy=0;" edge="1" parent="1" source="WDur1Cv2T1Mm-qldrju6-5">
          <mxGeometry x="310" y="195" as="geometry">
            <mxPoint x="380" y="255" as="sourcePoint" />
            <mxPoint x="320" y="200" as="targetPoint" />
          </mxGeometry>
        </mxCell>
        <mxCell id="AIxXi7Lmv9cS9lSX1KLY-41" value="" style="ellipse;whiteSpace=wrap;html=1;fontFamily=Helvetica;fontSize=12;fontColor=#000000;align=center;points=[];aspect=fixed;resizable=0;fillColor=none;strokeColor=#FFFFFF;" vertex="1" parent="1">
          <mxGeometry x="400" y="195" width="10" height="10" as="geometry" />
        </mxCell>
        <mxCell id="AIxXi7Lmv9cS9lSX1KLY-43" value="" style="endArrow=open;html=1;dashed=1;endFill=0;entryX=0;entryY=0.4;entryDx=0;entryDy=0;entryPerimeter=0;" edge="1" parent="1" target="AIxXi7Lmv9cS9lSX1KLY-41">
          <mxGeometry x="310" y="195" width="50" height="50" as="geometry">
            <mxPoint x="310" y="200" as="sourcePoint" />
            <mxPoint x="380" y="199" as="targetPoint" />
          </mxGeometry>
        </mxCell>
        <mxCell id="AIxXi7Lmv9cS9lSX1KLY-44" value="Ubicación" style="edgeLabel;html=1;align=center;verticalAlign=middle;resizable=0;points=[];" vertex="1" connectable="0" parent="AIxXi7Lmv9cS9lSX1KLY-43">
          <mxGeometry x="0.3043" relative="1" as="geometry">
            <mxPoint x="-10" y="10" as="offset" />
          </mxGeometry>
        </mxCell>
        <mxCell id="AIxXi7Lmv9cS9lSX1KLY-60" value="" style="endArrow=open;html=1;dashed=1;endFill=0;entryX=-0.1;entryY=0.6;entryDx=0;entryDy=0;entryPerimeter=0;" edge="1" parent="1" target="AIxXi7Lmv9cS9lSX1KLY-53">
          <mxGeometry x="720" y="245" width="50" height="50" as="geometry">
            <mxPoint x="710" y="200" as="sourcePoint" />
            <mxPoint x="812" y="250" as="targetPoint" />
          </mxGeometry>
        </mxCell>
        <mxCell id="AIxXi7Lmv9cS9lSX1KLY-62" value="Mapas" style="text;html=1;strokeColor=none;fillColor=none;align=center;verticalAlign=middle;whiteSpace=wrap;rounded=0;fontSize=11;" vertex="1" parent="1">
          <mxGeometry x="800" y="205" width="40" height="20" as="geometry" />
        </mxCell>
        <mxCell id="AIxXi7Lmv9cS9lSX1KLY-63" value="Sol. Mapas" style="text;html=1;strokeColor=none;fillColor=none;align=center;verticalAlign=middle;whiteSpace=wrap;rounded=0;fontSize=11;" vertex="1" parent="1">
          <mxGeometry x="670" y="205" width="80" height="20" as="geometry" />
        </mxCell>
        <mxCell id="AIxXi7Lmv9cS9lSX1KLY-110" style="edgeStyle=orthogonalEdgeStyle;rounded=0;orthogonalLoop=1;jettySize=auto;html=1;exitX=0.5;exitY=1;exitDx=0;exitDy=0;entryX=0.4;entryY=-0.2;entryDx=0;entryDy=0;entryPerimeter=0;fontSize=11;endArrow=none;endFill=0;" edge="1" parent="1">
          <mxGeometry relative="1" as="geometry">
            <mxPoint x="641" y="293" as="sourcePoint" />
            <mxPoint x="640" y="308" as="targetPoint" />
          </mxGeometry>
        </mxCell>
        <mxCell id="AIxXi7Lmv9cS9lSX1KLY-76" value="" style="html=1;rounded=0;fontSize=11;" vertex="1" parent="1">
          <mxGeometry x="630" y="273" width="20" height="20" as="geometry" />
        </mxCell>
        <mxCell id="AIxXi7Lmv9cS9lSX1KLY-104" style="edgeStyle=orthogonalEdgeStyle;rounded=0;orthogonalLoop=1;jettySize=auto;html=1;exitX=0;exitY=0.75;exitDx=0;exitDy=0;entryX=1;entryY=0.5;entryDx=0;entryDy=0;entryPerimeter=0;fontSize=11;endArrow=none;endFill=0;" edge="1" parent="1" source="AIxXi7Lmv9cS9lSX1KLY-81" target="AIxXi7Lmv9cS9lSX1KLY-99">
          <mxGeometry relative="1" as="geometry" />
        </mxCell>
        <mxCell id="AIxXi7Lmv9cS9lSX1KLY-108" style="edgeStyle=orthogonalEdgeStyle;rounded=0;orthogonalLoop=1;jettySize=auto;html=1;exitX=1;exitY=0.75;exitDx=0;exitDy=0;entryX=0.5;entryY=0.1;entryDx=0;entryDy=0;entryPerimeter=0;fontSize=11;endArrow=none;endFill=0;" edge="1" parent="1" source="AIxXi7Lmv9cS9lSX1KLY-81" target="AIxXi7Lmv9cS9lSX1KLY-98">
          <mxGeometry relative="1" as="geometry" />
        </mxCell>
        <mxCell id="AIxXi7Lmv9cS9lSX1KLY-81" value="" style="html=1;rounded=0;fontSize=11;" vertex="1" parent="1">
          <mxGeometry x="470" y="273" width="20" height="20" as="geometry" />
        </mxCell>
        <mxCell id="AIxXi7Lmv9cS9lSX1KLY-97" value="" style="ellipse;whiteSpace=wrap;html=1;fontFamily=Helvetica;fontSize=12;fontColor=#000000;align=center;points=[];aspect=fixed;resizable=0;fillColor=none;strokeColor=#FFFFFF;" vertex="1" parent="1">
          <mxGeometry x="635" y="310" width="10" height="10" as="geometry" />
        </mxCell>
        <mxCell id="AIxXi7Lmv9cS9lSX1KLY-98" value="" style="ellipse;whiteSpace=wrap;html=1;fontFamily=Helvetica;fontSize=12;fontColor=#000000;align=center;points=[];aspect=fixed;resizable=0;fillColor=none;strokeColor=#FFFFFF;" vertex="1" parent="1">
          <mxGeometry x="500" y="310" width="10" height="10" as="geometry" />
        </mxCell>
        <mxCell id="AIxXi7Lmv9cS9lSX1KLY-99" value="" style="shape=requiredInterface;html=1;verticalLabelPosition=bottom;fontSize=11;strokeColor=#FFFFFF;fillColor=none;rotation=-90;" vertex="1" parent="1">
          <mxGeometry x="449" y="305" width="10" height="20" as="geometry" />
        </mxCell>
        <mxCell id="AIxXi7Lmv9cS9lSX1KLY-112" value="" style="endArrow=none;html=1;rounded=0;align=center;verticalAlign=top;endFill=0;labelBackgroundColor=none;endSize=2;fontSize=11;" edge="1" source="AIxXi7Lmv9cS9lSX1KLY-111" parent="1">
          <mxGeometry relative="1" as="geometry">
            <mxPoint x="640" y="407.5" as="targetPoint" />
          </mxGeometry>
        </mxCell>
        <mxCell id="AIxXi7Lmv9cS9lSX1KLY-114" value="" style="endArrow=open;html=1;dashed=1;endFill=0;entryX=0.5;entryY=1.3;entryDx=0;entryDy=0;entryPerimeter=0;" edge="1" parent="1" target="AIxXi7Lmv9cS9lSX1KLY-97">
          <mxGeometry x="680" y="366" width="50" height="50" as="geometry">
            <mxPoint x="640" y="402.5" as="sourcePoint" />
            <mxPoint x="770" y="370" as="targetPoint" />
          </mxGeometry>
        </mxCell>
        <mxCell id="AIxXi7Lmv9cS9lSX1KLY-111" value="" style="html=1;rounded=0;fontSize=11;strokeColor=#FFFFFF;" vertex="1" parent="1">
          <mxGeometry x="630" y="428" width="20" height="20" as="geometry" />
        </mxCell>
        <mxCell id="AIxXi7Lmv9cS9lSX1KLY-116" value="" style="shape=requiredInterface;html=1;verticalLabelPosition=bottom;fontSize=11;strokeColor=#FFFFFF;fillColor=none;rotation=90;" vertex="1" parent="1">
          <mxGeometry x="635" y="394" width="10" height="20" as="geometry" />
        </mxCell>
        <mxCell id="AIxXi7Lmv9cS9lSX1KLY-121" style="edgeStyle=orthogonalEdgeStyle;rounded=0;orthogonalLoop=1;jettySize=auto;html=1;exitX=1;exitY=0.25;exitDx=0;exitDy=0;entryX=1;entryY=0.5;entryDx=0;entryDy=0;entryPerimeter=0;fontSize=11;endArrow=none;endFill=0;" edge="1" parent="1" source="AIxXi7Lmv9cS9lSX1KLY-117" target="AIxXi7Lmv9cS9lSX1KLY-119">
          <mxGeometry relative="1" as="geometry" />
        </mxCell>
        <mxCell id="AIxXi7Lmv9cS9lSX1KLY-117" value="" style="html=1;rounded=0;fontSize=11;strokeColor=#FFFFFF;" vertex="1" parent="1">
          <mxGeometry x="470" y="428" width="20" height="20" as="geometry" />
        </mxCell>
        <mxCell id="AIxXi7Lmv9cS9lSX1KLY-120" style="edgeStyle=orthogonalEdgeStyle;rounded=0;orthogonalLoop=1;jettySize=auto;html=1;exitX=1;exitY=0.5;exitDx=0;exitDy=0;exitPerimeter=0;fontSize=11;endArrow=none;endFill=0;" edge="1" parent="1" source="AIxXi7Lmv9cS9lSX1KLY-119">
          <mxGeometry relative="1" as="geometry">
            <mxPoint x="505" y="420" as="targetPoint" />
          </mxGeometry>
        </mxCell>
        <mxCell id="AIxXi7Lmv9cS9lSX1KLY-119" value="" style="shape=requiredInterface;html=1;verticalLabelPosition=bottom;fontSize=11;strokeColor=#FFFFFF;fillColor=none;rotation=90;" vertex="1" parent="1">
          <mxGeometry x="500" y="394" width="10" height="20" as="geometry" />
        </mxCell>
        <mxCell id="AIxXi7Lmv9cS9lSX1KLY-122" value="" style="endArrow=open;html=1;dashed=1;endFill=0;entryX=0.5;entryY=1.2;entryDx=0;entryDy=0;entryPerimeter=0;exitX=1;exitY=0.5;exitDx=0;exitDy=0;exitPerimeter=0;" edge="1" parent="1" source="AIxXi7Lmv9cS9lSX1KLY-119" target="AIxXi7Lmv9cS9lSX1KLY-98">
          <mxGeometry x="690" y="376" width="50" height="50" as="geometry">
            <mxPoint x="650" y="412.5" as="sourcePoint" />
            <mxPoint x="650" y="333" as="targetPoint" />
          </mxGeometry>
        </mxCell>
        <mxCell id="AIxXi7Lmv9cS9lSX1KLY-123" value="Datos de Ruta" style="text;html=1;strokeColor=none;fillColor=none;align=center;verticalAlign=middle;whiteSpace=wrap;rounded=0;fontSize=11;" vertex="1" parent="1">
          <mxGeometry x="650" y="305" width="80" height="20" as="geometry" />
        </mxCell>
        <mxCell id="AIxXi7Lmv9cS9lSX1KLY-124" value="Guarda Datos de Ruta" style="text;html=1;strokeColor=none;fillColor=none;align=center;verticalAlign=middle;whiteSpace=wrap;rounded=0;fontSize=11;" vertex="1" parent="1">
          <mxGeometry x="650" y="394" width="125" height="20" as="geometry" />
        </mxCell>
        <mxCell id="AIxXi7Lmv9cS9lSX1KLY-125" value="Datos Geoespaciales" style="text;html=1;strokeColor=none;fillColor=none;align=center;verticalAlign=middle;whiteSpace=wrap;rounded=0;fontSize=11;" vertex="1" parent="1">
          <mxGeometry x="500" y="300" width="100" height="20" as="geometry" />
        </mxCell>
        <mxCell id="AIxXi7Lmv9cS9lSX1KLY-126" value="Guarda Datos Geoespaciales" style="text;html=1;strokeColor=none;fillColor=none;align=center;verticalAlign=middle;whiteSpace=wrap;rounded=0;fontSize=11;" vertex="1" parent="1">
          <mxGeometry x="510" y="404" width="90" height="20" as="geometry" />
        </mxCell>
        <mxCell id="AIxXi7Lmv9cS9lSX1KLY-129" style="edgeStyle=orthogonalEdgeStyle;rounded=0;orthogonalLoop=1;jettySize=auto;html=1;exitX=1;exitY=0.5;exitDx=0;exitDy=0;entryX=-0.1;entryY=0.8;entryDx=0;entryDy=0;entryPerimeter=0;fontSize=11;endArrow=none;endFill=0;" edge="1" parent="1" source="AIxXi7Lmv9cS9lSX1KLY-127" target="AIxXi7Lmv9cS9lSX1KLY-128">
          <mxGeometry relative="1" as="geometry" />
        </mxCell>
        <mxCell id="AIxXi7Lmv9cS9lSX1KLY-127" value="" style="html=1;rounded=0;fontSize=11;" vertex="1" parent="1">
          <mxGeometry x="270" y="520" width="20" height="20" as="geometry" />
        </mxCell>
        <mxCell id="AIxXi7Lmv9cS9lSX1KLY-128" value="" style="ellipse;whiteSpace=wrap;html=1;fontFamily=Helvetica;fontSize=12;fontColor=#000000;align=center;points=[];aspect=fixed;resizable=0;fillColor=none;strokeColor=#FFFFFF;" vertex="1" parent="1">
          <mxGeometry x="320" y="525" width="10" height="10" as="geometry" />
        </mxCell>
        <mxCell id="AIxXi7Lmv9cS9lSX1KLY-133" value="" style="endArrow=open;html=1;dashed=1;endFill=0;exitX=1;exitY=0.5;exitDx=0;exitDy=0;exitPerimeter=0;entryX=1.3;entryY=0.2;entryDx=0;entryDy=0;entryPerimeter=0;" edge="1" parent="1" source="AIxXi7Lmv9cS9lSX1KLY-99" target="AIxXi7Lmv9cS9lSX1KLY-128">
          <mxGeometry x="565" y="381" width="50" height="50" as="geometry">
            <mxPoint x="380" y="414" as="sourcePoint" />
            <mxPoint x="360" y="540" as="targetPoint" />
            <Array as="points">
              <mxPoint x="454" y="400" />
              <mxPoint x="360" y="400" />
              <mxPoint x="360" y="527" />
            </Array>
          </mxGeometry>
        </mxCell>
        <mxCell id="AIxXi7Lmv9cS9lSX1KLY-134" value="Datos Geoespaciales Reales" style="text;html=1;strokeColor=none;fillColor=none;align=center;verticalAlign=middle;whiteSpace=wrap;rounded=0;fontSize=11;" vertex="1" parent="1">
          <mxGeometry x="290" y="540" width="110" height="20" as="geometry" />
        </mxCell>
        <mxCell id="AIxXi7Lmv9cS9lSX1KLY-135" value="Uso y Guardado de Datos Geoespaciales Reales" style="text;html=1;strokeColor=none;fillColor=none;align=center;verticalAlign=middle;whiteSpace=wrap;rounded=0;fontSize=11;" vertex="1" parent="1">
          <mxGeometry x="310" y="320" width="130" height="20" as="geometry" />
        </mxCell>
      </root>
    </mxGraphModel>
  </diagram>
</mxfile>
